<svg width="18" height="17" viewBox="0 0 18 17" fill="none" xmlns="http://www.w3.org/2000/svg">
<path d="M1.06463 14.1056L2.72485 8.35792L1.06463 2.6102C0.997599 2.37764 0.998916 2.13071 1.06842 1.89888C1.13792 1.66706 1.27267 1.46013 1.45658 1.30281C1.6405 1.14548 1.8658 1.04441 2.10559 1.01166C2.34539 0.978909 2.58954 1.01586 2.80891 1.1181L16.3849 7.42273C16.5683 7.50632 16.7239 7.64091 16.8329 7.81045C16.942 7.98 17 8.17734 17 8.37894C17 8.58053 16.942 8.77787 16.8329 8.94742C16.7239 9.11697 16.5683 9.25156 16.3849 9.33514L2.80891 15.6398C2.58568 15.7475 2.33566 15.787 2.09009 15.7534C1.84452 15.7199 1.61429 15.6147 1.42818 15.451C1.24207 15.2873 1.10832 15.0724 1.04366 14.8331C0.979004 14.5938 0.986295 14.3408 1.06463 14.1056Z" stroke="white" stroke-width="1.5" stroke-linecap="round" stroke-linejoin="round"/>
<path d="M2.72516 8.35791H7.28551" stroke="white" stroke-width="1.5" stroke-linecap="round" stroke-linejoin="round"/>
</svg>
